<svg id="Capa_1" enable-background="new 0 0 512 512" height="512" viewBox="0 0 512 512" width="512" xmlns="http://www.w3.org/2000/svg"><path d="m309.267 59.481h-53.267v-52.371h53.267c2.302 0 3.562 2.684 2.091 4.455l-17.566 21.152c-.279.336-.279.822 0 1.158l17.566 21.152c1.471 1.77.211 4.454-2.091 4.454z" fill="#62a4fb"/><path d="m149.841 297.338h212.318v145.767h-212.318z" fill="#b9c3cd"/><path d="m115.006 211.097 140.994-113.613 140.994 113.613v86.241h-281.988z" fill="#ddebfd"/><path d="m396.994 221.743-118.24-100.588c-13.185-11.216-32.323-11.216-45.508 0l-118.24 100.588v37.969l136.979-116.529c2.328-1.98 5.705-1.98 8.031 0l136.979 116.529v-37.969z" fill="#bed9fd"/><path d="m256 102.972c-4.208 0-7.619-3.411-7.619-7.619v-87.734c0-4.208 3.411-7.619 7.619-7.619s7.619 3.411 7.619 7.619v87.734c0 4.208-3.411 7.619-7.619 7.619z" fill="#4e5a61"/><path d="m299.905 256.994c8.187-9.874 13.116-22.542 13.116-36.341 0-31.441-25.579-57.02-57.021-57.02s-57.021 25.579-57.021 57.02c0 13.799 4.929 26.467 13.116 36.341.244.346.511.679.819.99.058.059.122.109.182.166 10.46 11.953 25.81 19.524 42.904 19.524s32.444-7.571 42.904-19.525c.06-.056.123-.106.181-.165.308-.31.576-.644.82-.99zm-2.122-36.341c0 7.302-1.888 14.17-5.194 20.149l-28.97-28.751v-32.471c19.412 3.593 34.164 20.637 34.164 41.073zm-49.402 41.074c-7.238-1.34-13.827-4.546-19.246-9.107l19.246-19.1zm15.238-28.207 19.246 19.1c-5.419 4.561-12.008 7.767-19.246 9.107zm-15.238-53.94v32.472l-28.97 28.751c-3.306-5.979-5.194-12.847-5.194-20.149 0-20.437 14.752-37.481 34.164-41.074z" fill="#4e5a61"/><path d="m424.347 251.034c-3.312 0-6.642-1.132-9.362-3.447l-154.97-131.833c-2.326-1.98-5.703-1.98-8.031 0l-154.969 131.834c-6.081 5.175-15.208 4.439-20.383-1.645-5.175-6.083-4.439-15.208 1.644-20.383l154.97-131.834c13.185-11.216 32.323-11.216 45.508 0l154.969 131.834c6.083 5.175 6.819 14.3 1.644 20.383-2.859 3.362-6.927 5.091-11.02 5.091z" fill="#dc4955"/><path d="m80.331 448.184v29.368h351.337v-29.368c0-2.805-2.274-5.079-5.079-5.079h-341.178c-2.806 0-5.08 2.274-5.08 5.079z" fill="#909ba6"/><path d="m426.589 443.105h-19.936c2.805 0 5.079 2.274 5.079 5.079v29.368h19.936v-29.368c.001-2.805-2.273-5.079-5.079-5.079z" fill="#7e8b96"/><path d="m47.021 482.632v24.289c0 2.805 2.274 5.079 5.079 5.079h407.8c2.805 0 5.079-2.274 5.079-5.079v-24.289c0-2.805-2.274-5.079-5.079-5.079h-407.8c-2.805 0-5.079 2.274-5.079 5.079z" fill="#5f6c75"/><path d="m459.9 477.553h-19.937c2.805 0 5.079 2.274 5.079 5.079v24.289c0 2.805-2.274 5.079-5.079 5.079h19.937c2.805 0 5.079-2.274 5.079-5.079v-24.289c0-2.805-2.274-5.079-5.079-5.079z" fill="#4e5a61"/><path d="m336.345 297.338v33.111c0 2.244 1.819 4.064 4.064 4.064h52.523c2.244 0 4.064-1.819 4.064-4.064v-33.111z" fill="#bed9fd"/><path d="m336.345 409.994v33.111h60.65v-33.111c0-2.244-1.819-4.064-4.064-4.064h-52.523c-2.244.001-4.063 1.82-4.063 4.064z" fill="#bed9fd"/><path d="m351.093 334.512h31.153v71.419h-31.153z" fill="#ddebfd"/><path d="m115.006 297.338v33.111c0 2.244 1.819 4.064 4.063 4.064h52.523c2.244 0 4.064-1.819 4.064-4.064v-33.111z" fill="#bed9fd"/><path d="m115.006 409.994v33.111h60.65v-33.111c0-2.244-1.819-4.064-4.064-4.064h-52.523c-2.244.001-4.063 1.82-4.063 4.064z" fill="#bed9fd"/><path d="m129.754 334.512h31.153v71.419h-31.153z" fill="#ddebfd"/><path d="m256 338.576c18.135 0 32.836 14.701 32.836 32.836v71.693h-65.673v-71.693c.001-18.135 14.702-32.836 32.837-32.836z" fill="#5f6c75"/></svg>